name C:\Users\u0101727\Documents\MyRepositories\upper-imu-dc\Results\main_mocap_tracking\Case_10\FLX01_linearAccelerations_bodyFrame.mot
datacolumns 4
datarows 58
range 2.01000000 2.58000000
endheader 
time	radius_imu_x	radius_imu_y	radius_imu_z	
          2.01000000	         -3.41196332	         -3.69721643	          7.25734817	
          2.02000000	         -3.11712380	         -3.76101482	          7.25188485	
          2.03000000	         -2.96308905	         -3.84303278	          7.21305397	
          2.04000000	         -2.96586510	         -3.95062433	          7.14093466	
          2.05000000	         -3.10358805	         -4.08217951	          7.04501051	
          2.06000000	         -3.32313153	         -4.22780523	          6.94057846	
          2.07000000	         -3.56123617	         -4.37375124	          6.84260238	
          2.08000000	         -3.77045095	         -4.50824739	          6.76024359	
          2.09000000	         -3.93764092	         -4.62546838	          6.69430467	
          2.10000000	         -4.08225970	         -4.72579835	          6.63874323	
          2.11000000	         -4.23004251	         -4.81310785	          6.58605153	
          2.12000000	         -4.38097892	         -4.89152116	          6.53314579	
          2.13000000	         -4.49992337	         -4.96397018	          6.48340994	
          2.14000000	         -4.53521423	         -5.03298067	          6.44431784	
          2.15000000	         -4.44825188	         -5.10231581	          6.42303094	
          2.16000000	         -4.23818975	         -5.17772206	          6.42155277	
          2.17000000	         -3.95312733	         -5.26594725	          6.43251168	
          2.18000000	         -3.68007453	         -5.37234179	          6.43842426	
          2.19000000	         -3.51204794	         -5.49812516	          6.41739271	
          2.20000000	         -3.51018792	         -5.63884174	          6.35295566	
          2.21000000	         -3.68646032	         -5.78517472	          6.24105944	
          2.22000000	         -4.01176128	         -5.92592440	          6.08999913	
          2.23000000	         -4.43503530	         -6.05172583	          5.91511724	
          2.24000000	         -4.90041970	         -6.15788270	          5.73235173	
          2.25000000	         -5.35775324	         -6.24522417	          5.55367624	
          2.26000000	         -5.76710462	         -6.31876523	          5.38533447	
          2.27000000	         -6.09951443	         -6.38498806	          5.22821875	
          2.28000000	         -6.33563942	         -6.44925307	          5.07940003	
          2.29000000	         -6.46356674	         -6.51441089	          4.93415436	
          2.30000000	         -6.47570233	         -6.58056862	          4.78823167	
          2.31000000	         -6.36515172	         -6.64530966	          4.64002604	
          2.32000000	         -6.12352772	         -6.70407295	          4.49202130	
          2.33000000	         -5.74244735	         -6.75110823	          4.35084038	
          2.34000000	         -5.21988362	         -6.78150457	          4.22543823	
          2.35000000	         -4.57044947	         -6.79405536	          4.12352847	
          2.36000000	         -3.83582689	         -6.79368647	          4.04720273	
          2.37000000	         -3.08919973	         -6.79172730	          3.98961258	
          2.38000000	         -2.42556836	         -6.80310930	          3.93559285	
          2.39000000	         -1.93412048	         -6.84134447	          3.86827265	
          2.40000000	         -1.66649034	         -6.91378677	          3.77853964	
          2.41000000	         -1.62373011	         -7.01969713	          3.67028400	
          2.42000000	         -1.76617156	         -7.15166542	          3.55829906	
          2.43000000	         -2.03222598	         -7.29887518	          3.46182443	
          2.44000000	         -2.35550503	         -7.45016450	          3.39797661	
          2.45000000	         -2.67769203	         -7.59570781	          3.37748162	
          2.46000000	         -2.95623186	         -7.72732649	          3.40340476	
          2.47000000	         -3.16615943	         -7.83811922	          3.47225093	
          2.48000000	         -3.29730217	         -7.92240769	          3.57594281	
          2.49000000	         -3.35104346	         -7.97687088	          3.70376393	
          2.50000000	         -3.33792766	         -8.00249934	          3.84377834	
          2.51000000	         -3.27480241	         -8.00566628	          3.98371037	
          2.52000000	         -3.18177606	         -7.99691382	          4.11195227	
          2.53000000	         -3.07870531	         -7.98781540	          4.21854488	
          2.54000000	         -2.98189202	         -7.98773681	          4.29593610	
          2.55000000	         -2.90174124	         -8.00214701	          4.33940608	
          2.56000000	         -2.84192572	         -8.03294761	          4.34712741	
          2.57000000	         -2.80023514	         -8.08012114	          4.31994294	
          2.58000000	         -2.77061514	         -8.14313660	          4.26106139	
